<svg width="680" height="520" viewBox="0 0 680 520" xmlns="http://www.w3.org/2000/svg">
  <style>
    .f1 { fill: #7a7060; }
    .f2 { fill: #4e4438; }
    .f3 { fill: #a09080; }
    .f4 { fill: #c8b89a; }
    .f5 { fill: #e0d4bc; }
    .f6 { fill: #5a5048; }
    .eye-a { fill: #a07c18; }
    .eye-d { fill: #100c08; }
    .nose-d { fill: #1a1210; }
    .gum-r { fill: #6a2020; }
    .tth { fill: #ddd8c8; }
  </style>

  <circle cx="340" cy="260" r="240" fill="#e8dfc8"/>
  <circle cx="340" cy="260" r="240" fill="none" stroke="#b0a080" stroke-width="3"/>

  <path d="M430 318 Q448 345 454 378 Q457 408 448 435 Q438 452 428 458 Q440 435 447 408 Q452 378 447 350 Q441 330 430 318Z" class="f1"/>
  <path d="M345 298 Q334 315 326 338 Q320 358 322 382 Q324 364 332 344 Q340 324 345 310Z" class="f4"/>
  <path d="M345 298 Q334 312 326 336 Q344 320 364 316 Q386 318 408 328 Q388 320 364 318 Q346 316 340 308Z" class="f5" opacity="0.7"/>

  <path d="M458 195 Q466 168 452 145 Q434 120 408 114 Q382 108 358 116 Q336 126 326 148 Q318 166 322 190 Q328 168 346 152 Q366 136 392 132 Q418 132 436 148 Q452 166 452 192Z" class="f1"/>
  <path d="M326 148 Q344 130 372 122 Q400 116 422 130 Q440 144 445 164 Q428 148 406 140 Q382 132 358 136 Q340 142 326 156Z" class="f2"/>

  <path d="M386 130 Q389 68 410 44 Q424 80 420 130 Q408 122 386 130Z" class="f1"/>
  <path d="M390 128 Q393 76 410 54 Q421 86 418 128 Q408 120 390 128Z" class="f2"/>
  <path d="M394 126 Q397 82 410 64 Q418 92 415 126 Q408 118 394 126Z" fill="#7a3830" opacity="0.65"/>
  <path d="M354 138 Q352 98 368 78 Q377 106 374 138 Q365 133 354 138Z" class="f2" opacity="0.55"/>

  <path d="M326 148 Q314 172 310 202 Q306 232 312 258 Q320 282 336 298 Q354 314 380 322 Q408 330 434 320 Q454 310 462 290 Q470 266 466 240 Q460 212 448 192 Q436 172 416 158 Q396 144 374 138 Q352 134 336 140 Q330 144 326 148Z" class="f1"/>
  <path d="M312 258 Q306 242 310 220 Q318 240 322 262 Q328 282 338 298 Q322 282 312 258Z" class="f3"/>

  <path d="M314 212 Q326 196 348 192 Q366 190 380 196 Q362 193 345 198 Q330 203 318 216Z" class="f2"/>

  <ellipse cx="344" cy="228" rx="24" ry="20" class="f2"/>
  <ellipse cx="344" cy="228" rx="17" ry="16" class="eye-a"/>
  <ellipse cx="344" cy="228" rx="11" ry="14" class="eye-d"/>
  <ellipse cx="344" cy="228" rx="3.5" ry="13" class="eye-d"/>
  <circle cx="349" cy="220" r="3" fill="white" opacity="0.5"/>

  <path d="M334 176 Q340 163 348 176" fill="none" stroke="#3e3428" stroke-width="1" opacity="0.45"/>
  <path d="M356 166 Q363 153 372 166" fill="none" stroke="#3e3428" stroke-width="1" opacity="0.4"/>
  <path d="M378 170 Q386 158 394 170" fill="none" stroke="#3e3428" stroke-width="1" opacity="0.4"/>
  <path d="M320 222 Q326 210 334 222" fill="none" stroke="#3e3428" stroke-width="1" opacity="0.45"/>
  <path d="M430 198 Q437 186 444 198" fill="none" stroke="#3e3428" stroke-width="1" opacity="0.35"/>
  <path d="M446 226 Q452 214 460 226" fill="none" stroke="#3e3428" stroke-width="1" opacity="0.35"/>

  <path d="M314 220 Q304 230 290 240 Q270 252 248 262 Q226 270 204 274 Q186 276 172 270 Q160 264 156 252 Q153 240 160 230 Q170 220 186 220 Q206 222 228 230 Q252 240 274 248 Q295 252 310 246 Q315 238 314 220Z" class="f3"/>
  <path d="M312 224 Q300 234 284 244 Q262 254 238 262 Q214 268 194 268 Q178 266 168 256 Q162 248 164 238 Q170 226 186 222 Q170 226 164 238 Q162 250 170 260 Q180 268 196 270 Q218 270 244 264 Q270 256 294 246 Q310 236 314 224Z" class="f2" opacity="0.35"/>

  <path d="M156 252 Q152 264 158 278 Q166 294 180 306 Q196 318 216 326 Q236 334 254 334 Q270 332 280 322 Q288 310 286 296 Q282 282 272 274 Q256 266 236 264 Q214 264 194 268 Q178 270 170 268 Q160 264 156 252Z" class="f4"/>
  <path d="M158 278 Q156 290 162 306 Q172 322 188 334 Q204 344 222 350 Q206 342 194 330 Q180 316 172 300 Q164 284 158 278Z" class="f5"/>

  <path d="M148 244 Q152 232 162 226 Q170 222 178 226 Q168 230 162 240 Q156 250 158 262 Q160 270 166 274 Q158 268 152 258 Q146 250 148 244Z" class="nose-d"/>
  <path d="M162 226 Q172 222 180 226 Q174 228 168 234 Q162 240 160 250 Q158 240 162 228Z" fill="#2a1e18" opacity="0.5"/>
  <ellipse cx="160" cy="248" rx="5" ry="4" fill="#2a1810" opacity="0.65"/>
  <path d="M155 246 Q159 242 165 244" fill="none" stroke="#2a1810" stroke-width="1" opacity="0.5"/>

  <path d="M168 272 Q184 278 204 282 Q224 284 244 282 Q264 278 278 272 Q264 280 244 284 Q222 287 200 284 Q180 280 168 272Z" class="f6"/>
  <path d="M174 276 Q192 282 214 285 Q234 286 252 282 Q268 277 278 270 Q264 278 248 282 Q230 286 210 285 Q190 283 174 276Z" class="gum-r"/>

  <path d="M184 278 L183 294 L192 278Z" class="tth"/>
  <path d="M193 279 L191 294 L200 279Z" class="tth"/>
  <path d="M201 280 L199 294 L208 280Z" class="tth"/>
  <path d="M209 281 L207 293 L216 281Z" class="tth"/>
  <path d="M217 281 L215 292 L224 281Z" class="tth"/>
  <path d="M176 278 L172 300 L184 277Z" class="tth"/>
  <path d="M226 281 L225 291 L234 282Z" class="tth" opacity="0.7"/>
  <path d="M235 282 L234 290 L242 283Z" class="tth" opacity="0.5"/>

  <path d="M170 300 Q180 310 196 320 Q216 330 238 338 Q258 344 274 342 Q288 338 294 328 Q298 316 294 304 Q288 314 282 322 Q270 332 252 336 Q232 340 212 334 Q194 326 182 314 Q174 306 170 300Z" class="f1"/>
  <path d="M170 300 Q166 310 170 322 Q178 336 194 346 Q212 356 232 360 Q215 354 200 344 Q186 332 178 318 Q172 306 170 300Z" class="f5"/>

  <path d="M180 306 L182 295 L190 306Z" class="tth" opacity="0.7"/>
  <path d="M191 311 L193 300 L200 310Z" class="tth" opacity="0.6"/>
  <path d="M174 303 L174 290 L183 303Z" class="tth" opacity="0.85"/>

  <line x1="172" y1="250" x2="104" y2="236" stroke="#a09080" stroke-width="1.2" opacity="0.8"/>
  <line x1="171" y1="258" x2="102" y2="257" stroke="#a09080" stroke-width="1.2" opacity="0.7"/>
  <line x1="173" y1="266" x2="107" y2="278" stroke="#a09080" stroke-width="1.2" opacity="0.6"/>
  <line x1="174" y1="244" x2="112" y2="226" stroke="#a09080" stroke-width="1" opacity="0.5"/>
  <line x1="174" y1="272" x2="110" y2="288" stroke="#a09080" stroke-width="1" opacity="0.5"/>
</svg>
